<svg width="171" height="154" viewBox="0 0 171 154" fill="none" xmlns="http://www.w3.org/2000/svg">
<path d="M79.8333 104.886V104.674V95.3155C79.8333 92.7292 79.9495 90.2911 80.1371 88.4189C80.231 87.4817 80.342 86.6953 80.4629 86.1067C80.5235 85.8119 80.5848 85.5759 80.6444 85.3996C80.6741 85.3117 80.7015 85.2445 80.7254 85.1951C80.7372 85.1708 80.7471 85.1529 80.7548 85.1404C80.7611 85.1302 80.7649 85.1252 80.7658 85.124C80.7659 85.1238 80.766 85.1238 80.766 85.1238L80.7659 85.1239L80.3833 84.8019C81.2 83.8777 82.8333 33.967 82.8333 7.74078C82.8333 5.16434 82.9181 2.88168 83.0621 1.47459L79.8333 104.886ZM79.8333 104.886L79.6806 105.033L75.014 109.539L75.014 109.539L75.0109 109.542C73.6342 110.849 72.4943 112.205 71.7026 113.424C70.896 114.665 70.5 115.687 70.5 116.343C70.5 117.061 70.5844 117.673 70.7114 118.088C70.7602 118.248 70.8102 118.361 70.8534 118.436C70.9675 118.361 71.1217 118.245 71.3154 118.087C71.7155 117.761 72.2486 117.283 72.8795 116.687C74.1385 115.497 75.7635 113.86 77.4496 112.075L83.3838 105.52L83.5 52.799C83.5 38.3006 83.4417 25.1027 83.3396 15.5302C83.331 14.7244 83.3221 13.9444 83.3129 13.1915L79.8333 104.886ZM70.9215 118.53C70.9215 118.53 70.9206 118.529 70.9187 118.527C70.9206 118.529 70.9215 118.53 70.9215 118.53ZM70.7206 118.514C70.7163 118.515 70.714 118.516 70.7139 118.516C70.7138 118.516 70.716 118.516 70.7206 118.514Z" fill="#323232" stroke="black"/>
<path d="M86.8884 71.8547V71.8551C86.8306 94.715 86.6859 112.211 86.4545 123.993C86.3387 129.883 86.2012 134.35 86.0416 137.347C85.962 138.843 85.8763 139.983 85.7839 140.752C85.738 141.134 85.6885 141.442 85.6324 141.663C85.6054 141.77 85.5699 141.885 85.5183 141.984C85.4929 142.033 85.4502 142.104 85.3816 142.169C85.3103 142.237 85.1809 142.324 85 142.324C84.7515 142.324 84.5828 142.181 84.4932 142.077C84.4022 141.971 84.3375 141.843 84.2889 141.726C84.19 141.486 84.1075 141.162 84.035 140.778C83.8886 140.002 83.7641 138.877 83.6624 137.45C83.4587 134.59 83.343 130.458 83.343 125.347C83.343 121.284 83.343 118.235 83.3069 115.977C83.2707 113.71 83.1981 112.273 83.0601 111.415C82.9924 110.994 82.9167 110.767 82.8552 110.657C82.8469 110.66 82.8377 110.665 82.8274 110.67C82.7669 110.7 82.6895 110.749 82.5915 110.822C82.3925 110.971 82.1578 111.18 81.864 111.445L81.8603 111.449C81.3978 111.858 81.0473 112.259 80.7722 112.743C80.4963 113.228 80.2837 113.82 80.1248 114.623C79.8033 116.249 79.7149 118.665 79.7149 122.678V132.193V132.399L79.5689 132.546L74.1309 138L74.1277 138.003C70.9436 141.138 68.5617 143.038 66.1633 143.89C63.7332 144.754 61.3552 144.521 58.2451 143.579C55.6108 142.798 52.5424 140.897 50.2256 138.927C49.0647 137.939 48.0701 136.916 47.4052 135.982C47.0732 135.516 46.8117 135.056 46.6575 134.621C46.505 134.192 46.4406 133.738 46.5727 133.319L46.5801 133.295L46.5898 133.273C46.7477 132.903 47.1293 132.624 47.5174 132.411C47.9335 132.182 48.4742 131.967 49.0997 131.773C50.3528 131.384 52.0058 131.06 53.8241 130.883C53.8253 130.883 53.8265 130.883 53.8277 130.883L58.3624 130.378L49.4949 126.03C49.4943 126.029 49.4936 126.029 49.4929 126.029C43.2225 123.029 37.3155 121.163 32.1448 120.476C26.9687 119.787 22.5692 120.284 19.2778 121.962C19.2774 121.963 19.2771 121.963 19.2767 121.963L16.3976 123.448L20.5596 124.514C20.56 124.514 20.5604 124.514 20.5607 124.514C28.1038 126.405 34.4331 130.784 46.0109 142.163C49.2247 145.299 51.6692 147.656 53.7093 149.367C55.7506 151.08 57.3505 152.114 58.869 152.635C61.8746 153.667 64.6998 152.747 70.3543 150.525L70.3587 150.524C72.7905 149.595 75.0494 148.752 76.7302 148.142C77.5702 147.837 78.2679 147.589 78.7712 147.417C79.0224 147.331 79.2286 147.263 79.3812 147.216C79.457 147.193 79.5242 147.173 79.5793 147.159L79.5836 147.158C79.6177 147.149 79.7073 147.126 79.7934 147.126C79.9987 147.126 80.1299 147.246 80.1559 147.27L80.1574 147.271C80.204 147.314 80.2392 147.359 80.2621 147.39C80.3102 147.457 80.3565 147.537 80.3991 147.619C80.4865 147.786 80.5881 148.014 80.6935 148.286C80.9043 148.83 81.1427 149.577 81.3219 150.414C81.6015 151.532 81.9373 152.105 82.4186 152.435C82.9201 152.777 83.6805 152.927 85 152.927C86.3195 152.927 87.0799 152.777 87.5814 152.435C88.0627 152.105 88.3985 151.532 88.6782 150.413C88.8572 149.578 89.0964 148.826 89.3255 148.275C89.4395 148.001 89.557 147.761 89.6708 147.582C89.7265 147.495 89.7927 147.403 89.8695 147.327C89.9241 147.274 90.0832 147.126 90.3223 147.126C90.3849 147.126 90.439 147.137 90.4588 147.141C90.4878 147.147 90.5175 147.155 90.545 147.163C90.6006 147.178 90.6681 147.199 90.7439 147.224C90.8966 147.275 91.1028 147.347 91.3536 147.439C91.8564 147.621 92.5536 147.883 93.3927 148.203C94.3009 148.548 95.3801 148.962 96.564 149.416C97.5666 149.801 98.6443 150.215 99.757 150.64L99.757 150.64L99.7664 150.643C102.471 151.74 104.877 152.543 106.785 153.015C107.74 153.25 108.56 153.401 109.226 153.465C109.904 153.53 110.374 153.5 110.654 153.414L110.662 153.411L110.67 153.409C110.751 153.387 110.937 153.3 111.248 153.106C111.544 152.921 111.915 152.664 112.353 152.339C113.229 151.689 114.352 150.787 115.642 149.695C118.221 147.513 121.453 144.591 124.685 141.464L124.688 141.462C136.151 130.546 143.527 125.585 151.309 123.929L151.318 123.928L153.517 123.501L150.832 122.075L150.823 122.07C147.833 120.405 145.3 120.161 138.716 120.508C135.207 120.739 132.705 121.083 129.967 121.923C127.218 122.766 124.213 124.113 119.703 126.374L119.698 126.377L110.817 130.686L115.204 130.765C115.204 130.765 115.205 130.765 115.206 130.765C117.832 130.794 119.829 131.115 121.16 131.707C121.829 132.005 122.361 132.385 122.71 132.862C123.067 133.35 123.212 133.911 123.144 134.512C123.013 135.667 122.107 136.906 120.651 138.169C119.173 139.452 117.038 140.836 114.271 142.268L114.271 142.268L114.262 142.272C111.06 143.849 108.586 144.626 106.218 144.425C103.844 144.224 101.667 143.049 99.0381 140.941C95.0655 137.88 92.8182 135.953 91.6164 133.283C90.4213 130.628 90.2851 127.291 90.2851 121.517V111.19V109.931L91.1488 110.847L95.1971 115.139C95.1973 115.139 95.1975 115.14 95.1978 115.14C96.3848 116.388 97.2934 117.328 97.9918 117.984C98.3409 118.312 98.629 118.56 98.8667 118.739C99.1104 118.921 99.2729 119.008 99.3726 119.041C99.3738 119.041 99.3751 119.041 99.3763 119.042C99.387 119.018 99.4003 118.984 99.4146 118.934C99.5088 118.609 99.5413 118.023 99.5413 117.108C99.5413 116.447 99.1476 115.419 98.3478 114.173C97.5625 112.949 96.4319 111.586 95.0667 110.274L95.0637 110.271L94.9774 110.187C92.7458 108.005 91.5075 106.794 90.8904 104.984C90.5795 104.072 90.4314 103.029 90.3582 101.668C90.2851 100.311 90.2851 98.6026 90.2851 96.353V96.3376C90.2851 93.8564 90.17 91.3786 89.9694 89.3818C89.8691 88.3829 89.7481 87.5116 89.6114 86.824C89.4705 86.116 89.3239 85.6635 89.199 85.4548L89.1948 85.4476L89.1907 85.4404C89.1097 85.2941 89.0611 85.0786 89.0245 84.8857C88.9828 84.6663 88.9414 84.3827 88.8999 84.0428C88.8168 83.3617 88.7302 82.428 88.6415 81.2749C88.4638 78.9672 88.2755 75.7599 88.0874 71.8927C87.7111 64.157 87.3349 53.7679 87.0456 42.6257L87.0456 42.6255L86.9434 38.6407L86.8884 71.8547Z" fill="#323232" stroke="black"/>
<path d="M52.0518 110.753L51.6625 114.283L52.7964 112.812L52.8044 112.802L52.8129 112.792C54.0606 111.338 56.7264 107.004 58.835 103.193C60.4661 100.149 61.3457 98.18 61.8419 95.9857C62.3403 93.7814 62.4581 91.324 62.5167 87.2863C62.5164 81.9035 61.9933 77.9699 60.3614 74.0042C58.7239 70.0251 55.956 65.9786 51.4014 60.3946L51.3997 60.3925C47.5169 55.5786 44.9614 51.2266 43.6351 46.8485C42.3064 42.4627 42.2207 38.0821 43.2292 33.2275C45.4811 22.1296 52.0117 13.5699 61.9988 9.23305L62 9.23256C62.9295 8.83162 63.668 8.48486 64.2313 8.18271C64.8025 7.87634 65.1629 7.63185 65.361 7.44234C65.4176 7.38816 65.4522 7.3476 65.4729 7.31921C65.4726 7.31895 65.4722 7.31868 65.4719 7.31841C65.4162 7.27565 65.3221 7.22115 65.1746 7.15994C64.2236 6.81371 62.8114 6.60147 61.0859 6.52859C59.3643 6.45588 57.3661 6.52307 55.2703 6.7161C51.0751 7.10249 46.5295 7.98924 43.0719 9.23885C29.1254 14.3953 17.5488 23.8915 12.3562 34.4701C11.619 35.9819 10.9302 37.1746 10.2792 38.0366C9.63999 38.8829 8.98459 39.4825 8.292 39.6882C7.93104 39.7955 7.56688 39.7934 7.21424 39.671C6.86838 39.5509 6.56319 39.3257 6.29285 39.0329C5.76074 38.4564 5.30216 37.5503 4.88609 36.3784L4.88551 36.3768C4.71956 35.9041 4.58246 35.5258 4.46612 35.2377C4.43472 35.3697 4.40186 35.5211 4.36726 35.6934C4.22733 36.3903 4.06817 37.3806 3.86317 38.7087L3.86318 38.7087L3.86253 38.7127C2.88815 44.7023 3.79836 49.8217 7.55889 55.5525C11.3424 61.3183 18.0122 67.7046 28.5932 76.1765L28.5942 76.1773C38.4756 84.1319 44.6701 89.8801 48.2251 95.0787C51.8073 100.317 52.7073 104.994 52.0519 110.752C52.0518 110.752 52.0518 110.752 52.0518 110.753ZM65.5025 7.26692C65.5021 7.26675 65.5007 7.26978 65.4997 7.27585C65.5023 7.26999 65.5028 7.26708 65.5025 7.26692Z" fill="#323232" stroke="black"/>
<path d="M117.623 112.085L119.297 113.676L118.883 110.306C118.165 104.945 119.258 100.264 123.366 94.6454C127.449 89.0609 134.527 82.5269 145.787 73.419L145.788 73.4179C154.878 66.1173 160.771 60.1298 164.093 54.467C167.398 48.8323 168.167 43.504 166.965 37.4707C166.775 36.5237 166.625 35.8027 166.497 35.2831C166.44 35.4855 166.377 35.7212 166.306 35.9913L166.306 35.9913L166.303 36.0008C165.974 37.1622 165.532 38.0565 164.939 38.5869C164.634 38.8594 164.285 39.0395 163.894 39.0999C163.506 39.1599 163.113 39.0957 162.729 38.9376C161.977 38.6281 161.208 37.9396 160.426 36.9595C159.636 35.9694 158.796 34.6349 157.912 32.9662C153.658 24.9633 143.719 16.2103 133.052 11.1372C129.324 9.39958 126.762 8.34245 124.226 7.67278C121.695 7.00449 119.169 6.71663 115.511 6.54323C113.127 6.48552 110.776 6.48566 108.922 6.54327C107.993 6.57213 107.195 6.61523 106.582 6.67193C106.275 6.7003 106.021 6.73157 105.822 6.765C105.707 6.7845 105.62 6.80315 105.559 6.81915C105.628 6.91407 105.761 7.05847 105.998 7.25079C106.664 7.79162 107.872 8.49537 109.555 9.30339C117.39 12.8468 124.72 21.3152 127.21 29.688L127.212 29.6945C130.412 41.0091 127.91 51.2801 119.517 60.5669L119.517 60.5671L119.508 60.5766C117.454 62.7322 114.214 67.6725 112.119 71.4909C110.549 74.497 109.669 76.4816 109.159 78.6368C108.648 80.7974 108.502 83.1562 108.444 86.9235C108.444 90.5088 108.59 92.9606 109.075 95.2428C109.559 97.5226 110.386 99.6578 111.78 102.602L111.78 102.602L111.785 102.614C112.65 104.563 113.747 106.603 114.816 108.326C115.892 110.062 116.913 111.432 117.617 112.079L117.617 112.079L117.623 112.085ZM105.451 6.8576C105.451 6.8576 105.452 6.85734 105.452 6.85677L105.451 6.8576Z" fill="#323232" stroke="black"/>
<path d="M58.8266 24.118L58.8266 24.1181L58.8181 24.1208C55.946 25.0343 53.09 26.7529 50.9571 28.6573C49.8916 29.6088 49.0186 30.5959 48.4156 31.5381C47.8081 32.4873 47.5 33.351 47.5 34.0662C47.5 34.3303 47.5919 34.7628 47.7968 35.3483C47.9973 35.9213 48.2913 36.6004 48.6604 37.3416C49.3985 38.8237 50.4234 40.5268 51.5621 42.0852L51.5621 42.0852L51.5656 42.0901C53.8393 45.2817 56.2792 49.6119 58.1505 53.5383C59.0866 55.5026 59.8845 57.3742 60.4496 58.9593C61.0073 60.5237 61.3612 61.8699 61.3612 62.7554C61.3612 62.8334 61.3617 62.9068 61.3629 62.9759C61.4313 62.8695 61.5065 62.7488 61.5889 62.6131L61.5889 62.6131L61.5907 62.6101C61.8443 62.1987 62.1176 61.5179 62.3276 60.7373C62.5365 59.961 62.6714 59.1279 62.6714 58.4228C62.6714 56.4338 63.5195 53.9486 64.5951 51.9771C65.1357 50.9861 65.7483 50.0976 66.3669 49.4489C66.6763 49.1246 66.9977 48.8491 67.3232 48.6519C67.6461 48.4563 68.0016 48.3206 68.3694 48.3206C68.6059 48.3206 68.7789 48.2658 68.9102 48.1807C69.0424 48.0951 69.1636 47.9587 69.2631 47.7465C69.47 47.3055 69.5579 46.5893 69.4599 45.5753C69.2656 43.563 68.3676 40.6361 66.7594 37.0841C65.1364 33.5581 64.1838 30.6869 63.9733 28.553C63.868 27.4849 63.9438 26.5588 64.2507 25.8171C64.5642 25.0597 65.1102 24.5184 65.8754 24.2331C66.2857 24.0601 66.5001 23.8483 66.5992 23.671C66.6954 23.4991 66.7019 23.3297 66.6442 23.1738C66.5264 22.8553 66.0563 22.4539 65.1632 22.5042L65.1492 22.505H65.1351C64.9836 22.505 64.6914 22.5406 64.2656 22.6207C63.8503 22.6989 63.337 22.8136 62.7586 22.9584C61.602 23.2479 60.1999 23.6539 58.8266 24.118Z" fill="#323232" stroke="black"/>
<path d="M108.807 59.3508L109.4 62.2618L111.329 57.4361L111.329 57.436L111.333 57.426C112.964 53.5919 114.972 49.5873 116.88 46.2809C117.834 44.6277 118.766 43.144 119.616 41.9408C120.46 40.7465 121.243 39.7988 121.903 39.2433L121.903 39.2431L121.912 39.2356C123.846 37.6853 123.961 35.0276 122.548 32.2648C121.143 29.5183 118.287 26.8413 114.636 25.5167L114.635 25.5162C112.181 24.6191 109.32 23.9721 107.077 23.6773C105.953 23.5295 105.007 23.4734 104.355 23.5116C104.069 23.5284 103.869 23.5621 103.743 23.6001C103.787 23.7321 103.891 23.8984 104.088 24.092C104.353 24.3521 104.729 24.6041 105.151 24.8139C105.903 25.0903 106.448 25.6041 106.764 26.3339C107.076 27.053 107.152 27.9497 107.046 28.9844C106.834 31.0502 105.876 33.8465 104.248 37.3315C102.635 40.7865 101.735 43.6308 101.54 45.5837C101.442 46.5678 101.53 47.2584 101.735 47.6815C101.834 47.8846 101.954 48.0164 102.087 48.0999C102.22 48.1833 102.396 48.2376 102.636 48.2376C103.349 48.2376 104.02 48.6411 104.608 49.2215C105.206 49.8105 105.781 50.6409 106.309 51.6352C107.366 53.6253 108.278 56.3513 108.807 59.3508ZM103.629 23.6462C103.629 23.6463 103.632 23.6446 103.637 23.6411C103.631 23.6443 103.628 23.6461 103.629 23.6462Z" fill="#323232" stroke="black"/>
<path d="M5.52155 60.5423L4.70844 57.7195L3.13551 62.6372C3.13524 62.6381 3.13497 62.639 3.1347 62.6398C0.160076 72.2989 -0.293365 79.9756 1.76227 89.3865L1.76232 89.3865L1.76366 89.393C2.61874 93.575 5.25584 101.13 7.89277 107.661C9.20925 110.921 10.5192 113.91 11.5978 116.08C12.1381 117.167 12.6142 118.035 12.9992 118.627C13.1929 118.924 13.3528 119.135 13.4764 119.265C13.4875 119.277 13.498 119.288 13.5077 119.297C13.5152 119.29 13.5231 119.282 13.5314 119.273C13.6389 119.158 13.7707 118.972 13.9104 118.718C14.188 118.213 14.46 117.506 14.6235 116.74L14.6274 116.722L14.6326 116.704C15.2674 114.535 17.0331 112.94 19.7559 111.75L19.7592 111.749C23.4302 110.176 28.1503 110.408 32.972 112.009C37.8038 113.613 42.7966 116.608 47.0553 120.654L47.0554 120.654C48.1233 121.669 48.8738 122.233 49.3314 122.432C49.403 122.463 49.4556 122.479 49.4925 122.489C49.4948 122.471 49.4969 122.449 49.4983 122.423C49.5087 122.234 49.4725 121.932 49.3616 121.496C49.2527 121.067 49.0796 120.538 48.8385 119.907C48.3566 118.645 47.6149 117.002 46.6092 114.981L46.6091 114.981L46.6052 114.972C44.2205 109.951 39.4272 103.859 30.8941 94.8198C12.6879 75.5971 8.21403 69.7186 5.52224 60.5447L5.52155 60.5423ZM13.6055 119.379C13.6054 119.379 13.6043 119.378 13.602 119.377C13.6044 119.379 13.6055 119.379 13.6055 119.379ZM13.4191 119.371C13.4178 119.372 13.4171 119.372 13.4171 119.372C13.4171 119.372 13.4178 119.372 13.4191 119.371ZM49.4743 122.564C49.4745 122.564 49.4757 122.562 49.4775 122.557C49.4751 122.561 49.4742 122.563 49.4743 122.564Z" fill="#323232" stroke="black"/>
<path d="M165.49 60.1972L165.489 60.2027C164.951 63.4842 163.198 67.1318 159.747 71.9112C156.294 76.693 151.111 82.6481 143.666 90.5461L143.665 90.5464C130.275 104.728 125.26 111.237 122.531 117.711C121.986 119.027 121.665 120.015 121.549 120.695C121.49 121.037 121.491 121.263 121.517 121.398C121.528 121.455 121.541 121.483 121.548 121.495C121.569 121.5 121.643 121.511 121.806 121.467C122.006 121.413 122.278 121.294 122.629 121.089C123.329 120.682 124.26 119.985 125.435 118.984C130.339 114.67 136.764 111.398 142.402 110.342L142.405 110.341C145.389 109.805 148.516 110.221 151.039 111.28C153.545 112.332 155.556 114.065 156.132 116.238L156.135 116.249L156.138 116.261C156.301 117.023 156.573 117.725 156.851 118.227C156.99 118.48 157.122 118.664 157.23 118.778C157.239 118.788 157.248 118.797 157.257 118.806C157.26 118.803 157.264 118.799 157.268 118.795C157.375 118.69 157.517 118.517 157.691 118.267C158.036 117.77 158.463 117.036 158.951 116.108C159.925 114.256 161.112 111.683 162.329 108.823C164.763 103.098 167.29 96.2669 168.435 91.8079C171.071 81.3902 171.18 75.2528 168.781 66.0102L168.781 66.0086C168.147 63.5333 167.616 61.6145 167.165 60.2101C166.712 58.802 166.359 57.9787 166.094 57.6151C165.894 58.0174 165.693 58.862 165.49 60.1972ZM121.555 121.504C121.556 121.503 121.554 121.501 121.551 121.499C121.553 121.503 121.555 121.504 121.555 121.504ZM157.344 118.877C157.344 118.877 157.343 118.876 157.342 118.876C157.343 118.877 157.344 118.877 157.344 118.877ZM157.165 118.881C157.164 118.882 157.163 118.882 157.163 118.882C157.163 118.882 157.164 118.882 157.165 118.881ZM165.973 57.4801C165.973 57.4803 165.975 57.4817 165.978 57.4837C165.975 57.4809 165.973 57.4799 165.973 57.4801Z" fill="#323232" stroke="black"/>
</svg>
