<svg width="384" height="543" viewBox="0 0 384 543" fill="none" xmlns="http://www.w3.org/2000/svg">
<path d="M171.155 50.9868V0.00012207C146.205 11.5868 122.947 26.3602 102.225 44.5202C80.4266 63.6535 61.5346 85.6935 46.224 110.32C30.9586 134.88 19.46 161.467 11.744 189.32C3.84268 217.827 0 247.24 0 276.814C0 305.174 3.87327 333.333 11.4973 360.653C19.0759 387.76 30.3293 413.6 45.224 437.48C60.2133 461.48 78.8599 482.747 100.427 501.04C121.041 518.507 144.239 532.174 169.172 542.374V492.28C131.464 470 100.104 440.493 77.8293 402.52C55.1706 363.88 44.9479 321.453 44.9479 276.827C44.9479 253.507 47.6839 230.293 53.1413 207.627C58.5226 185.32 66.7 163.827 77.768 143.72C88.6973 123.84 102.333 105.707 118.367 89.6668C133.908 74.1334 151.695 61.2002 171.14 50.9868H171.155Z" fill="url(#paint0_linear_8_180)"/>
<path d="M338.093 456.16V278.533H147.497V236.453H338.093V85.9067H383.893V456.16H338.093" fill="url(#paint1_linear_8_180)"/>
<defs>
<linearGradient id="paint0_linear_8_180" x1="337.76" y1="271.227" x2="-60.3546" y2="271.211" gradientUnits="userSpaceOnUse">
<stop offset="0.492708" stop-color="#A66D3C"/>
<stop offset="0.9999" stop-color="#FCD28E"/>
<stop offset="1" stop-color="#FCD28E"/>
</linearGradient>
<linearGradient id="paint1_linear_8_180" x1="337.76" y1="271.067" x2="-60.3549" y2="271.051" gradientUnits="userSpaceOnUse">
<stop stop-color="#A66D3C"/>
<stop offset="0.326042" stop-color="#FCD28E"/>
<stop offset="0.883333" stop-color="#F2A663"/>
</linearGradient>
</defs>
</svg>
